<svg width="18" height="18" viewBox="0 0 18 18" fill="none" xmlns="http://www.w3.org/2000/svg">
<path d="M10.9204 15.4204L16.5454 9.79539C16.6499 9.691 16.7329 9.56702 16.7895 9.43054C16.8461 9.29406 16.8752 9.14776 16.8752 9.00001C16.8752 8.85226 16.8461 8.70596 16.7895 8.56948C16.7329 8.433 16.6499 8.30903 16.5454 8.20464L10.9204 2.57964C10.8159 2.47519 10.6919 2.39233 10.5555 2.33581C10.419 2.27928 10.2727 2.25018 10.125 2.25018C9.97729 2.25018 9.83102 2.27928 9.69455 2.33581C9.55808 2.39233 9.43408 2.47519 9.32963 2.57964C9.11868 2.79058 9.00017 3.07669 9.00017 3.37501C9.00017 3.67334 9.11868 3.95944 9.32963 4.17039L13.0343 7.87501H2.25C1.95163 7.87501 1.66548 7.99354 1.4545 8.20452C1.24353 8.4155 1.125 8.70164 1.125 9.00001C1.125 9.29838 1.24353 9.58453 1.4545 9.79551C1.66548 10.0065 1.95163 10.125 2.25 10.125H13.0343L9.32963 13.8296C9.22479 13.9339 9.1416 14.0578 9.08483 14.1943C9.02806 14.3308 8.99884 14.4772 8.99884 14.625C8.99884 14.7728 9.02806 14.9192 9.08483 15.0557C9.1416 15.1922 9.22479 15.3162 9.32963 15.4204C9.43401 15.525 9.55799 15.6079 9.69447 15.6645C9.83095 15.7211 9.97725 15.7502 10.125 15.7502C10.2727 15.7502 10.4191 15.7211 10.5555 15.6645C10.692 15.6079 10.816 15.525 10.9204 15.4204Z" fill="#41403E"/>
</svg>
