<svg width="22" height="23" viewBox="0 0 22 23" fill="none" xmlns="http://www.w3.org/2000/svg">
<path d="M7.5625 19.8201C8.32189 19.8201 8.9375 19.2045 8.9375 18.4451C8.9375 17.6857 8.32189 17.0701 7.5625 17.0701C6.80311 17.0701 6.1875 17.6857 6.1875 18.4451C6.1875 19.2045 6.80311 19.8201 7.5625 19.8201Z" fill="#41403E"/>
<path d="M17.1875 19.8201C17.9469 19.8201 18.5625 19.2045 18.5625 18.4451C18.5625 17.6857 17.9469 17.0701 17.1875 17.0701C16.4281 17.0701 15.8125 17.6857 15.8125 18.4451C15.8125 19.2045 16.4281 19.8201 17.1875 19.8201Z" fill="#41403E"/>
<path d="M19.6281 5.75986C19.5315 5.64172 19.4099 5.54657 19.2719 5.48131C19.134 5.41606 18.9832 5.38234 18.8306 5.3826H5.75309L5.48969 3.88815C5.4616 3.72896 5.37832 3.58476 5.25448 3.48087C5.13063 3.37699 4.97415 3.32006 4.8125 3.3201H2.0625C1.88016 3.3201 1.7053 3.39253 1.57636 3.52146C1.44743 3.65039 1.375 3.82526 1.375 4.0076C1.375 4.18994 1.44743 4.3648 1.57636 4.49373C1.7053 4.62267 1.88016 4.6951 2.0625 4.6951H4.23586L6.19781 15.8146C6.2259 15.9737 6.30918 16.1179 6.43302 16.2218C6.55687 16.3257 6.71335 16.3826 6.875 16.3826H17.875C18.0573 16.3826 18.2322 16.3102 18.3611 16.1812C18.4901 16.0523 18.5625 15.8774 18.5625 15.6951C18.5625 15.5128 18.4901 15.3379 18.3611 15.209C18.2322 15.08 18.0573 15.0076 17.875 15.0076H7.45164L7.2093 13.6326H17.5931C17.8315 13.6323 18.0625 13.5496 18.247 13.3986C18.4315 13.2475 18.5581 13.0374 18.6055 12.8037L19.843 6.61623C19.8728 6.46649 19.869 6.31199 19.8318 6.16389C19.7947 6.0158 19.7251 5.8778 19.6281 5.75986Z" fill="#41403E"/>
</svg>
