<svg width="18" height="17" viewBox="0 0 18 17" fill="none" xmlns="http://www.w3.org/2000/svg">
<path d="M9.00048 16.8201C8.72449 16.8197 8.45499 16.7364 8.22704 16.5808C4.85013 14.2884 3.3879 12.7166 2.58138 11.7339C0.862626 9.63916 0.039774 7.48858 0.0629771 5.15967C0.0900475 2.49088 2.23118 0.320099 4.83595 0.320099C6.73001 0.320099 8.04185 1.38701 8.80583 2.27561C8.83003 2.30347 8.85993 2.32582 8.89351 2.34113C8.9271 2.35644 8.96357 2.36437 9.00048 2.36437C9.03739 2.36437 9.07386 2.35644 9.10744 2.34113C9.14103 2.32582 9.17093 2.30347 9.19513 2.27561C9.95911 1.38615 11.2709 0.320099 13.165 0.320099C15.7698 0.320099 17.9109 2.49088 17.938 5.1601C17.9612 7.48943 17.1375 9.64002 15.4196 11.7343C14.6131 12.717 13.1508 14.2888 9.77392 16.5812C9.54592 16.7366 9.27642 16.8199 9.00048 16.8201Z" fill="#41403E"/>
</svg>
