<svg version="1.1" id="Layer_1" xmlns="http://www.w3.org/2000/svg" xmlns:xlink="http://www.w3.org/1999/xlink" x="0px" y="0px"
	 width="100%" viewBox="0 0 421 550" enable-background="new 0 0 421 550" xml:space="preserve">
<path fill="#DEAD6F" opacity="1.000000" stroke="none" 
	d="
M1.238584,534.271118 
	C1.000000,362.312439 1.000000,190.624878 1.000000,18.468658 
	C3.133972,15.415655 2.498394,11.659308 5.133710,9.127435 
	C8.507536,5.886041 11.729352,2.623787 16.731068,1.240105 
	C146.020889,1.000000 275.041779,1.000000 404.531342,1.000000 
	C407.515106,2.897856 410.898438,2.770342 413.416351,4.866300 
	C417.760712,8.482611 420.707245,12.792755 421.760620,18.724007 
	C422.000000,190.687561 422.000000,362.375122 422.000000,534.531372 
	C419.835876,536.991455 419.927032,540.150696 418.111450,542.368530 
	C414.769836,546.450439 410.762878,549.401001 405.267059,550.760376 
	C275.979095,551.000000 146.958206,551.000000 17.468658,551.000000 
	C15.023662,548.795288 11.760577,549.316772 9.561137,547.231873 
	C5.760623,543.629211 2.257396,539.999268 1.238584,534.271118 
z"/>
<path fill="#000000" opacity="1.000000" stroke="none" 
	d="
M422.000000,18.530293 
	C421.139343,20.292944 420.390686,19.001881 420.287811,18.642683 
	C418.068512,10.893804 412.567902,6.248755 405.659393,2.864353 
	C405.121887,2.601035 404.767181,1.964547 404.663757,1.250747 
	C410.594482,1.000000 416.188995,1.000000 421.783478,1.000000 
	C421.855652,6.686861 421.927826,12.373722 422.000000,18.530293 
z"/>
<path fill="#000000" opacity="1.000000" stroke="none" 
	d="
M405.470459,551.000000 
	C404.058716,550.521484 404.507874,549.854126 405.020447,549.606201 
	C411.171173,546.630920 416.169678,542.476562 419.309357,536.257751 
	C419.718414,535.447571 420.770905,534.962219 421.762665,534.663208 
	C422.000000,540.260986 422.000000,545.521973 422.000000,550.782959 
	C416.646973,550.855286 411.293945,550.927673 405.470459,551.000000 
z"/>
<path fill="#000000" opacity="1.000000" stroke="none" 
	d="
M16.528801,1.000000 
	C17.363640,1.266899 17.923012,1.652988 17.292814,2.009850 
	C10.550239,5.827980 5.783656,11.550769 1.370806,17.993385 
	C1.000000,17.342407 1.000000,16.684816 1.000000,16.027224 
	C1.000000,11.095284 -0.941087,3.993267 1.509628,1.801156 
	C4.336262,-0.727205 11.038403,1.077136 16.528801,1.000000 
z"/>
<path fill="#000000" opacity="1.000000" stroke="none" 
	d="
M1.000000,534.470459 
	C1.765396,534.077576 2.563524,533.824036 2.974964,534.937683 
	C5.164274,540.863403 9.538704,544.878540 14.859885,547.914124 
	C16.073637,548.606567 16.911682,549.458984 17.337559,550.757446 
	C11.739022,551.000000 6.478045,551.000000 1.217068,551.000000 
	C1.144712,545.646973 1.072356,540.293945 1.000000,534.470459 
z"/>
<path fill="#000000" opacity="1.000000" stroke="none" 
	d="
M13.000017,137.132385 
	C12.385291,133.076233 13.558760,131.898895 17.465530,131.902466 
	C146.427567,132.020447 275.389740,132.014786 404.351807,131.922882 
	C407.919586,131.920334 409.101227,132.554352 409.097656,136.463913 
	C408.979553,265.592560 409.003357,394.721344 408.991760,523.850098 
	C408.991028,531.862427 402.178802,538.437500 393.410645,538.988098 
	C392.248840,539.061035 391.078613,538.999878 389.912292,538.999878 
	C270.613983,539.000000 151.315659,538.982422 32.017342,539.025391 
	C19.091629,539.030029 13.019087,532.104248 13.016548,520.005859 
	C12.989812,392.543396 13.000005,265.080902 13.000017,137.132385 
z"/>
<path fill="#000000" opacity="1.000000" stroke="none" 
	d="
M13.000000,109.955399 
	C13.000000,84.139587 13.139503,58.817596 12.944201,33.498188 
	C12.838311,19.770527 19.343351,12.880157 33.506134,12.900855 
	C152.614136,13.074926 271.722504,13.011242 390.830750,12.974021 
	C398.544586,12.971611 404.457275,15.653104 407.998627,22.830786 
	C408.847961,24.552238 409.008514,26.244226 409.007812,28.063353 
	C408.996674,56.882549 408.914276,85.702309 409.101501,114.520294 
	C409.126709,118.403008 407.965393,119.081734 404.368744,119.079094 
	C275.432037,118.984688 146.495255,118.982422 17.558569,119.087646 
	C13.827744,119.090691 12.358419,118.200836 12.966609,114.442825 
	C13.176779,113.144188 13.000018,111.782944 13.000000,109.955399 
z"/>
<path fill="#DEAD6F" opacity="1.000000" stroke="none" 
	d="
M375.000000,317.010132 
	C375.000000,332.671478 375.005707,347.834991 374.997955,362.998535 
	C374.992950,372.749634 368.843445,378.976532 359.220276,379.000000 
	C347.974304,379.027405 348.401093,379.207794 343.851349,389.973053 
	C338.144226,403.476898 330.673920,415.986786 321.250366,427.386688 
	C307.524384,443.991455 290.735718,456.588287 271.448303,465.655518 
	C259.296204,471.368347 246.414307,475.381012 232.898529,477.095245 
	C224.556290,478.153351 216.245438,479.386536 207.835449,478.966766 
	C181.874359,477.671051 157.568512,471.012665 135.395325,456.973083 
	C110.591766,441.267975 92.195229,420.054749 80.224297,393.396729 
	C74.015610,379.570648 70.452202,364.983154 68.848923,349.767273 
	C66.535477,327.811432 69.497513,306.767639 76.920441,286.139923 
	C82.424309,270.845123 90.489525,257.129364 100.818840,244.574005 
	C114.598419,227.824783 131.235001,214.874741 150.799545,205.686615 
	C163.642731,199.655090 177.052719,195.513565 191.252380,193.906189 
	C198.434769,193.093140 205.577042,191.738113 212.818604,192.040878 
	C231.998062,192.842728 250.662552,196.227066 268.321808,204.065094 
	C285.636078,211.749985 301.197449,222.085312 314.267609,235.844131 
	C328.457611,250.781723 339.401367,267.844757 346.035126,287.453766 
	C347.234344,290.998657 348.945312,292.252380 352.730988,292.128845 
	C356.938446,291.991577 361.268494,291.127441 365.434235,293.115845 
	C371.988739,296.244446 375.388153,301.132477 375.021210,308.516205 
	C374.889069,311.175354 375.000000,313.846588 375.000000,317.010132 
z"/>
<path fill="#DEAD6F" opacity="1.000000" stroke="none" 
	d="
M110.000000,44.000000 
	C121.156456,44.000000 131.812912,43.998291 142.469360,44.000515 
	C151.841843,44.002472 156.282669,47.822083 156.405136,57.055958 
	C156.512405,65.144051 156.197754,73.229225 156.615128,81.331749 
	C156.878418,86.443268 151.721817,90.983757 146.335205,90.987541 
	C111.868263,91.011749 77.401192,90.958778 42.934391,91.034950 
	C36.107903,91.050041 33.805328,87.604530 33.361755,82.127029 
	C32.576900,72.435089 31.983946,62.538826 33.731567,52.868862 
	C34.918587,46.300835 38.373684,44.016407 45.061760,44.008949 
	C66.541153,43.985008 88.020584,44.000015 110.000000,44.000000 
z"/>
<path fill="#DEAD6F" opacity="1.000000" stroke="none" 
	d="
M377.666016,44.000031 
	C385.901031,44.435970 388.997223,47.674995 388.999420,55.384777 
	C389.001953,64.215279 389.017670,73.045822 388.993591,81.876266 
	C388.978149,87.544365 385.616913,90.988686 380.033539,90.991417 
	C345.377991,91.008377 310.722443,91.008102 276.066895,90.992226 
	C270.040253,90.989471 267.029877,87.994232 267.008423,82.012329 
	C266.976166,73.015327 266.995850,64.018135 267.001282,55.021019 
	C267.005798,47.561279 270.588776,44.011120 278.238617,44.007221 
	C311.228058,43.990406 344.217468,44.000011 377.666016,44.000031 
z"/>
<path fill="#DEAD6F" opacity="1.000000" stroke="none" 
	d="
M210.090866,32.000000 
	C227.370972,30.742212 243.557205,43.459766 246.676300,60.644863 
	C250.287048,80.538803 238.779541,98.753143 218.535782,103.162918 
	C200.064438,107.186600 181.773712,95.176125 176.527542,78.120514 
	C169.611801,55.636955 187.859619,31.761997 210.090866,32.000000 
z"/>
<path fill="#000000" opacity="1.000000" stroke="none" 
	d="
M91.677094,387.232086 
	C87.624008,376.744171 84.245956,366.500244 82.724503,355.613403 
	C81.190117,344.634003 80.647064,333.824860 81.767189,322.727386 
	C82.824265,312.254700 84.953537,302.113922 88.421364,292.319977 
	C93.994812,276.579224 102.523338,262.566559 113.502312,249.808899 
	C132.069778,228.233337 155.532272,215.084946 182.694061,208.303772 
	C193.486664,205.609299 204.742599,204.277603 215.941910,205.072098 
	C244.364227,207.088379 270.268158,215.901382 292.671295,234.101654 
	C312.897217,250.533142 327.245728,270.927917 335.294922,295.712189 
	C338.787231,306.465515 340.467560,317.464600 341.166321,328.819672 
	C342.747131,354.508087 336.708496,378.175446 324.186035,400.359955 
	C314.755249,417.067291 301.781067,430.680145 286.335297,441.909302 
	C271.031342,453.035339 253.859467,460.256805 235.357697,463.723389 
	C210.196045,468.437836 185.601898,465.838501 161.844574,455.994354 
	C145.336502,449.154083 130.754166,439.408203 118.294563,426.685211 
	C107.141052,415.295898 98.237061,402.253418 91.677094,387.232086 
z"/>
<path fill="#000000" opacity="1.000000" stroke="none" 
	d="
M354.000000,323.129364 
	C353.226715,316.862732 352.453461,311.068787 351.675201,305.237732 
	C351.751740,305.216125 352.068787,305.050232 352.386932,305.048035 
	C363.845764,304.968506 361.913177,304.102234 361.976807,314.435547 
	C362.067871,329.230438 362.000366,344.026306 361.999847,358.821777 
	C361.999603,366.053925 361.998871,366.053131 354.617401,366.000763 
	C353.628052,365.993744 352.638672,365.999786 351.422821,365.999786 
	C354.345795,351.820129 354.886353,337.750732 354.000000,323.129364 
z"/>
<path fill="#000000" opacity="1.000000" stroke="none" 
	d="
M143.000000,63.101681 
	C142.999756,67.580116 142.882935,71.577477 143.042526,75.563774 
	C143.140015,77.998154 142.637650,79.069290 139.830856,79.060165 
	C109.553238,78.961693 79.275116,78.972580 48.997353,79.047142 
	C46.536255,79.053207 45.895115,78.212845 45.956688,75.891678 
	C46.097809,70.571823 46.127022,65.241440 45.947548,59.923904 
	C45.860657,57.349430 46.963303,56.959892 49.182358,56.963959 
	C79.293839,57.019142 109.405975,57.090645 139.516525,56.914913 
	C144.723572,56.884529 142.531876,60.314411 143.000000,63.101681 
z"/>
<path fill="#000000" opacity="1.000000" stroke="none" 
	d="
M309.000000,79.000000 
	C300.183044,78.999840 291.863525,78.882835 283.550507,79.063950 
	C280.705353,79.125938 279.812927,78.290924 279.938965,75.444725 
	C280.159546,70.464317 280.093842,65.464592 279.959961,60.478012 
	C279.896301,58.106434 280.262756,56.929089 283.125946,56.938782 
	C313.066681,57.040112 343.007904,57.025394 372.948822,56.955658 
	C375.336517,56.950096 376.121704,57.660385 376.046234,60.054047 
	C375.889130,65.039253 375.774414,70.046623 376.077576,75.018333 
	C376.285583,78.429466 375.013214,79.085968 371.876801,79.066544 
	C351.085205,78.937752 330.292419,78.999947 309.000000,79.000000 
z"/>
<path fill="#000000" opacity="1.000000" stroke="none" 
	d="
M223.229202,87.334099 
	C210.594788,96.111214 192.667358,88.145721 188.850739,73.720825 
	C186.106018,63.347141 191.894135,51.685081 201.026093,46.969540 
	C208.949905,42.877838 221.857269,44.772907 228.170013,51.828800 
	C237.447830,62.198780 236.453796,79.583092 223.229202,87.334099 
z"/>
<path fill="#DEAD6F" opacity="1.000000" stroke="none" 
	d="
M313.651123,321.757446 
	C313.893677,324.028900 313.954010,326.057617 314.061218,328.519104 
	C314.033722,329.818420 313.970123,330.683502 314.643250,331.737000 
	C315.168030,358.726685 307.049164,382.361389 289.697021,402.914551 
	C278.379791,416.319519 264.417786,425.689087 248.343307,432.182220 
	C241.451385,434.966156 234.197830,436.546021 226.520935,438.023071 
	C225.909683,438.164978 225.704956,438.287476 225.193054,438.226349 
	C219.662918,439.395782 214.329269,438.925934 208.571686,439.024048 
	C207.909683,439.164978 207.704956,439.287476 207.193054,439.226379 
	C206.160873,439.021088 205.435867,438.999451 204.355408,438.905579 
	C203.313538,438.226227 202.504852,437.998474 201.279556,438.086975 
	C199.898270,438.068085 198.840118,438.022919 197.390961,437.905548 
	C196.045670,436.920502 194.750565,436.992188 193.305450,436.744324 
	C192.845001,436.874329 192.675995,436.915344 192.253479,436.894836 
	C191.045670,435.920502 189.750565,435.992188 188.305450,435.744324 
	C187.845001,435.874329 187.675995,435.915344 187.253479,435.894836 
	C178.677338,432.611481 170.227081,429.746643 162.295776,425.518829 
	C158.628906,423.564148 155.490845,420.800446 151.313141,419.135284 
	C149.778564,419.156921 148.926178,418.561371 148.080017,417.413635 
	C147.192001,416.114502 147.157532,414.534576 145.283051,414.133850 
	C140.528946,412.645630 138.572723,408.312714 135.026855,405.357849 
	C135.082092,403.146088 133.695251,402.335815 132.145386,401.250214 
	C131.608078,400.870636 131.330963,400.699066 130.973022,400.287964 
	C128.964249,394.170380 124.596886,389.681000 121.941132,384.160706 
	C117.756409,375.462280 114.664536,366.471802 111.763542,357.294403 
	C110.529922,353.391785 111.773438,348.835327 108.394073,345.266113 
	C108.118492,339.308594 108.070328,333.617493 108.094406,327.463348 
	C109.800407,325.493683 110.454582,324.038208 110.170555,321.449402 
	C109.812843,318.188995 112.205833,315.157623 113.070412,311.868866 
	C116.618324,298.372925 122.099541,285.716248 130.866821,274.286774 
	C130.981995,271.967651 133.871262,270.852661 132.789032,268.185120 
	C135.746643,264.980560 138.540192,262.070648 141.642639,259.026459 
	C146.662506,258.815674 149.264740,254.839066 152.819275,252.731583 
	C165.269882,245.349701 178.037491,238.914841 192.357956,236.127914 
	C194.176498,235.774002 195.330734,234.882309 196.726715,233.412888 
	C197.170929,233.125656 197.341492,233.084671 197.767883,233.105164 
	C200.304382,234.423767 202.556946,235.347702 204.751129,232.393707 
	C209.360336,232.118515 213.720276,232.070374 218.540024,232.094452 
	C220.875778,234.587753 223.974838,233.353592 225.832489,234.187820 
	C230.161850,236.132050 234.738678,236.469894 239.110794,237.786682 
	C252.132385,241.708511 264.155792,247.465500 274.901825,255.829758 
	C275.972290,256.662964 277.284393,256.989258 278.783691,257.756958 
	C279.094574,257.939484 279.023926,257.975891 279.042114,257.940552 
	C279.962860,259.800812 280.953430,261.600769 283.701569,261.875519 
	C284.327087,262.058167 284.610260,262.229156 284.967926,262.642822 
	C286.292206,264.981445 286.573395,267.839081 289.822357,268.775024 
	C290.462128,268.974152 290.728333,269.130005 290.977722,269.655273 
	C294.719208,276.886108 299.596436,283.137360 303.090820,290.309692 
	C307.183777,298.710663 309.935028,307.465790 312.625763,316.688599 
	C312.874329,317.171570 312.915344,317.342957 312.894836,317.771484 
	C312.591309,319.273376 312.987213,320.401855 313.651123,321.757446 
z"/>
<path fill="#DEAD6F" opacity="1.000000" stroke="none" 
	d="
M196.591919,233.095215 
	C197.411331,236.448807 195.952072,237.771683 192.676300,238.405746 
	C179.131332,241.027603 166.806122,246.716858 155.274567,254.170837 
	C152.733444,255.813431 149.563568,256.344086 147.710526,259.360962 
	C146.890076,260.696716 144.325958,260.186462 142.264954,259.119812 
	C153.720352,247.839874 167.538528,240.433014 182.995041,236.036606 
	C187.326416,234.804611 191.783844,234.015869 196.591919,233.095215 
z"/>
<path fill="#DEAD6F" opacity="1.000000" stroke="none" 
	d="
M131.498413,273.751221 
	C132.305099,276.357910 130.942352,278.093445 129.769440,279.882874 
	C122.722755,290.633392 117.726570,302.267883 114.540596,314.714264 
	C114.044441,316.652557 114.475029,319.095734 111.823067,320.158020 
	C110.405022,320.726013 111.474937,321.758026 111.943497,322.569092 
	C113.989525,326.110748 112.079803,326.976990 108.549820,326.997498 
	C109.879105,308.026703 116.146500,290.733582 127.246880,275.216736 
	C127.704880,274.576477 128.006180,273.824127 128.625565,273.047302 
	C129.524200,273.368500 130.232941,273.545624 131.498413,273.751221 
z"/>
<path fill="#DEAD6F" opacity="1.000000" stroke="none" 
	d="
M278.957794,257.626099 
	C276.726105,258.076996 274.797485,257.528809 272.686066,256.029327 
	C260.078308,247.075470 246.220291,240.864990 230.946655,237.973358 
	C227.990707,237.413742 225.589050,234.671143 221.945892,236.473495 
	C220.766724,237.056870 219.701660,234.437592 219.078568,232.508484 
	C232.610291,233.582718 245.733002,236.909271 257.966156,243.071533 
	C265.505127,246.869186 272.633575,251.447678 278.957794,257.626099 
z"/>
<path fill="#DEAD6F" opacity="1.000000" stroke="none" 
	d="
M108.105881,345.410675 
	C110.706306,346.421082 114.709015,346.828308 111.384972,351.535461 
	C110.196014,353.219086 113.681793,354.195618 114.034302,356.356689 
	C115.789467,367.116882 120.146751,376.966217 125.250687,386.501648 
	C126.808525,389.412109 128.588867,392.205505 130.317688,395.021576 
	C131.176788,396.420959 132.461624,397.679901 131.105652,399.777924 
	C123.531235,392.435974 119.232216,382.979614 115.023796,373.494385 
	C111.115364,364.685272 109.788857,355.193634 108.105881,345.410675 
z"/>
<path fill="#DEAD6F" opacity="1.000000" stroke="none" 
	d="
M312.904785,316.597534 
	C311.094543,316.401093 310.985748,314.790466 310.621124,313.368805 
	C307.072113,299.530731 301.019409,286.882782 292.626282,275.335388 
	C291.627502,273.961243 291.213837,272.341583 291.057190,270.271118 
	C301.588013,282.141510 308.188568,296.362335 311.997101,311.972168 
	C312.339569,313.375824 312.650635,314.787109 312.904785,316.597534 
z"/>
<path fill="#DEAD6F" opacity="1.000000" stroke="none" 
	d="
M151.094788,419.428955 
	C151.971436,418.158051 152.948181,418.277313 154.062424,419.043121 
	C163.667816,425.644562 174.143234,430.438934 185.212540,434.004852 
	C185.785172,434.189362 186.220154,434.801147 186.859589,435.523682 
	C175.204620,433.809082 164.819717,428.433167 154.782059,422.245911 
	C153.552505,421.488007 152.414093,420.582214 151.094788,419.428955 
z"/>
<path fill="#DEAD6F" opacity="1.000000" stroke="none" 
	d="
M204.604568,232.095184 
	C204.817200,233.722244 205.566269,235.794250 203.613525,236.518112 
	C201.072922,237.459869 199.845642,235.232712 198.217133,233.442001 
	C200.085403,232.785675 202.147079,232.404694 204.604568,232.095184 
z"/>
<path fill="#DEAD6F" opacity="1.000000" stroke="none" 
	d="
M132.277390,273.794067 
	C131.291977,273.807465 130.583954,273.614899 129.373291,273.196472 
	C129.729980,271.165466 131.974182,270.364716 132.643158,268.043579 
	C136.218002,270.027252 137.253876,272.008179 132.277390,273.794067 
z"/>
<path fill="#DEAD6F" opacity="1.000000" stroke="none" 
	d="
M283.917023,261.582947 
	C280.275360,264.095703 279.250610,262.030334 279.055206,258.293213 
	C280.733856,258.893829 282.569855,259.654663 283.917023,261.582947 
z"/>
<path fill="#DEAD6F" opacity="1.000000" stroke="none" 
	d="
M289.979065,268.648315 
	C286.150696,269.371521 285.446869,266.678436 285.058350,263.277557 
	C286.642853,264.703369 288.243286,266.521240 289.979065,268.648315 
z"/>
<path fill="#DEAD6F" opacity="1.000000" stroke="none" 
	d="
M131.938644,401.371002 
	C134.039612,401.189270 136.664276,400.868744 135.105804,404.772034 
	C133.638992,404.180359 132.303711,403.383392 131.938644,401.371002 
z"/>
<path fill="#DEAD6F" opacity="1.000000" stroke="none" 
	d="
M145.069031,414.401978 
	C147.851440,412.377625 147.759933,414.576996 147.958588,416.753662 
	C147.032364,416.306702 146.107147,415.498871 145.069031,414.401978 
z"/>
<path fill="#DEAD6F" opacity="1.000000" stroke="none" 
	d="
M188.339676,435.992920 
	C189.376221,434.997253 190.679901,434.666046 191.879730,436.550476 
	C190.802765,437.025848 189.588791,437.300629 188.339676,435.992920 
z"/>
<path fill="#DEAD6F" opacity="1.000000" stroke="none" 
	d="
M193.339676,436.992920 
	C194.376221,435.997253 195.679901,435.666046 196.879730,437.550476 
	C195.802765,438.025848 194.588791,438.300629 193.339676,436.992920 
z"/>
<path fill="#DEAD6F" opacity="1.000000" stroke="none" 
	d="
M313.905121,321.645386 
	C312.105194,321.349579 311.812073,320.144135 312.667969,318.293457 
	C313.499512,319.016022 314.288361,319.960449 313.905121,321.645386 
z"/>
<path fill="#DEAD6F" opacity="1.000000" stroke="none" 
	d="
M314.905151,331.659088 
	C313.540100,331.522583 312.887604,330.772461 313.915588,329.170715 
	C315.293457,329.411652 314.918732,330.444336 314.905151,331.659088 
z"/>
<path fill="#DEAD6F" opacity="1.000000" stroke="none" 
	d="
M201.114182,438.423218 
	C201.961212,437.197601 202.926895,436.900024 203.892792,438.562805 
	C203.090622,438.799957 202.181274,438.766571 201.114182,438.423218 
z"/>
<path fill="#DEAD6F" opacity="1.000000" stroke="none" 
	d="
M224.981674,438.295349 
	C225.090622,438.036926 225.295364,438.031097 225.807251,438.033875 
	C225.895645,438.471252 225.795593,439.143555 224.981674,438.295349 
z"/>
<path fill="#DEAD6F" opacity="1.000000" stroke="none" 
	d="
M206.981674,439.295349 
	C207.090622,439.036926 207.295364,439.031097 207.807251,439.033875 
	C207.895645,439.471252 207.795593,440.143555 206.981674,439.295349 
z"/>
<path fill="#000000" opacity="1.000000" stroke="none" 
	d="
M194.324341,362.402588 
	C191.955276,362.118500 189.910843,362.070374 187.433441,362.094452 
	C183.725891,365.111603 180.310593,363.017883 177.167206,362.127319 
	C162.347916,357.928619 148.742371,350.978485 135.622253,343.050415 
	C130.557983,339.990234 124.747429,337.920959 121.155731,332.340851 
	C121.271217,314.178680 126.998207,298.090942 137.147919,283.803345 
	C148.614487,267.662018 163.727814,255.935699 182.767151,249.631958 
	C194.899338,245.615082 207.352661,244.471893 220.495483,245.065704 
	C221.823608,245.034912 222.686111,244.970367 223.737640,245.643494 
	C224.740372,245.893936 225.480545,245.954529 226.589813,246.065552 
	C227.823608,246.034912 228.686111,245.970367 229.737640,246.643494 
	C230.169098,246.874344 230.337982,246.915329 230.760223,246.894836 
	C244.235031,248.705429 255.614822,254.772003 266.318726,262.362762 
	C267.007751,262.851410 267.212952,263.726624 267.762207,264.790558 
	C268.158844,265.825165 268.711334,265.988098 269.656281,266.062439 
	C271.661133,266.040619 272.071930,267.370544 272.785583,268.836304 
	C275.729767,272.004883 278.502014,274.895355 281.579742,277.914001 
	C286.479767,281.745026 289.435425,286.746399 292.312317,291.717834 
	C297.502747,300.687256 300.870026,310.366943 302.692474,320.582886 
	C303.598145,325.659668 301.436005,327.926086 296.414337,326.876892 
	C291.884857,325.930511 287.524200,324.222626 282.853851,323.891754 
	C281.388702,323.787964 280.642883,322.523102 279.312531,321.435913 
	C277.930664,321.118561 276.861603,321.070465 275.396484,321.094513 
	C274.604767,321.460938 274.108246,322.052795 273.778351,321.925903 
	C270.110535,320.514801 266.391022,322.318573 262.363647,321.421143 
	C261.247620,321.118622 260.495544,321.070648 259.371918,321.094666 
	C257.497131,322.762970 255.759140,323.662018 253.549362,324.302917 
	C247.021667,326.196228 240.543121,328.409698 235.241867,332.951538 
	C233.894440,334.105927 232.253830,334.319641 230.327026,334.867371 
	C225.707611,339.017487 221.459122,343.147797 217.081879,347.584290 
	C217.029526,350.527893 216.125824,352.635376 213.893311,354.211060 
	C210.150009,356.853088 207.026367,360.406616 202.677902,362.143463 
	C200.114471,363.167328 197.439728,364.407013 194.324341,362.402588 
z"/>
<path fill="#000000" opacity="1.000000" stroke="none" 
	d="
M218.326294,426.400177 
	C213.972168,426.118500 209.944641,426.070374 205.458771,426.094421 
	C202.953659,428.706451 200.347519,427.273956 198.053879,426.949005 
	C182.496552,424.744965 168.472366,418.877869 156.190247,408.995605 
	C155.398880,408.358826 154.916290,407.482117 154.251038,406.255920 
	C154.060562,405.905457 154.022949,405.976440 154.058441,405.957642 
	C151.962570,404.758514 149.240082,404.333649 148.234985,401.198242 
	C148.060562,400.905457 148.022934,400.976410 148.058426,400.957611 
	C145.756973,400.239349 144.584244,398.348877 143.251068,396.147095 
	C143.042206,395.885254 142.983353,395.432129 142.908356,395.216339 
	C137.949020,391.817383 135.334854,386.679810 132.431503,382.010071 
	C127.805412,374.569397 124.655167,366.365723 122.787621,357.383545 
	C122.874329,356.845062 122.915329,356.676117 122.894829,356.253693 
	C122.226379,355.313690 121.998497,354.504974 122.087021,353.279633 
	C122.041763,350.818756 121.104080,347.775085 125.581657,350.058350 
	C131.333572,351.079742 135.270752,354.911499 139.884506,357.343292 
	C152.546402,364.017151 165.597366,369.558929 179.685791,373.624786 
	C180.169083,373.874359 180.337997,373.915375 180.760254,373.894836 
	C182.215851,373.654480 183.326523,373.994690 184.709915,374.633850 
	C200.253296,376.459229 212.702484,371.236603 223.426788,360.318817 
	C228.940689,354.705383 233.812912,348.539124 239.828552,343.279022 
	C249.053665,335.212402 259.630798,333.300903 271.510742,333.065735 
	C272.823608,333.034912 273.686096,332.970398 274.737640,333.643494 
	C276.703918,333.894043 278.407684,333.954773 280.535156,334.065765 
	C287.585419,334.689178 293.862396,336.815430 300.168396,338.684174 
	C304.027191,339.827759 304.188324,341.355286 301.428894,345.699371 
	C301.125641,346.169006 301.084625,346.337646 301.105164,346.759308 
	C302.506378,349.270905 302.596893,351.581970 302.126709,354.191010 
	C299.370636,369.484467 292.166534,382.563110 282.478333,394.446167 
	C281.480835,395.669647 279.875854,395.865784 278.225037,396.758911 
	C275.130066,399.598145 272.374573,402.238831 269.309937,405.023071 
	C268.036407,408.342133 265.842926,410.452087 263.186218,412.310425 
	C254.242157,418.566895 244.400528,422.814697 233.899475,425.587128 
	C228.904907,426.905792 223.735291,426.267792 218.326294,426.400177 
z"/>
<path fill="#DEAD6F" opacity="1.000000" stroke="none" 
	d="
M279.081787,321.517334 
	C286.324890,322.106842 293.432678,324.083527 301.194977,326.101562 
	C299.643127,307.974243 292.242798,292.798065 281.940002,278.396729 
	C284.538208,277.587860 285.365356,279.587952 286.814270,281.239685 
	C296.987183,292.836365 302.144989,306.633545 304.781769,321.521637 
	C306.152313,329.260162 304.283752,330.772644 296.590607,328.924408 
	C292.246399,327.880737 287.904480,326.784149 283.508270,326.016754 
	C280.944183,325.569153 279.835907,324.061249 279.081787,321.517334 
z"/>
<path fill="#DEAD6F" opacity="1.000000" stroke="none" 
	d="
M120.915955,332.199280 
	C138.877945,343.905518 157.451202,354.259491 178.060287,360.518036 
	C180.675247,361.312134 183.463730,361.534790 186.586136,362.094421 
	C187.121902,365.358337 185.702011,366.111542 182.638901,365.452179 
	C165.684189,361.802521 150.623825,353.826263 135.834549,345.212555 
	C131.971069,342.962341 128.104111,340.694519 124.418510,338.172150 
	C122.503471,336.861542 120.011749,335.590973 120.915955,332.199280 
z"/>
<path fill="#DEAD6F" opacity="1.000000" stroke="none" 
	d="
M218.089355,426.497803 
	C228.216370,424.453491 238.330597,422.625671 247.896149,418.171295 
	C255.332428,414.708496 262.302002,410.775085 268.663086,405.188690 
	C271.089264,407.346985 271.814850,408.494049 268.552979,411.187317 
	C257.481903,420.328522 244.877747,425.605316 231.046036,428.512817 
	C229.324997,428.874603 227.782272,428.942108 226.332596,427.793396 
	C225.501175,427.134644 224.818939,426.790924 223.937790,428.027252 
	C221.240311,431.812012 219.679245,429.281494 218.089355,426.497803 
z"/>
<path fill="#DEAD6F" opacity="1.000000" stroke="none" 
	d="
M278.319519,396.966064 
	C290.052887,382.684265 298.467529,366.643311 301.094360,347.427094 
	C304.416229,349.031250 304.991425,351.641235 304.271881,355.482544 
	C301.424408,370.684448 294.541016,383.785461 284.735291,395.543152 
	C283.005188,397.617676 280.802643,396.749847 278.319519,396.966064 
z"/>
<path fill="#DEAD6F" opacity="1.000000" stroke="none" 
	d="
M154.054993,406.293274 
	C163.678741,412.794525 173.691956,418.826324 185.225372,422.152008 
	C191.466324,423.951599 197.829193,424.836548 204.580475,426.094299 
	C205.065567,428.866486 204.166855,430.038666 201.098175,429.582001 
	C184.688766,427.140045 169.505569,421.905518 156.512863,411.166107 
	C154.932083,409.859467 153.944336,408.692230 154.054993,406.293274 
z"/>
<path fill="#DEAD6F" opacity="1.000000" stroke="none" 
	d="
M230.267334,335.115479 
	C236.253342,328.151215 244.229492,324.400269 252.957077,322.024567 
	C254.664917,321.559662 256.442444,321.350800 258.594116,321.095215 
	C259.389160,324.381989 257.924774,325.532562 254.779221,326.457947 
	C248.359894,328.346405 241.908234,330.475647 236.606903,334.915863 
	C234.723022,336.493713 232.658508,336.187500 230.267334,335.115479 
z"/>
<path fill="#DEAD6F" opacity="1.000000" stroke="none" 
	d="
M194.091324,362.502747 
	C203.430420,360.708313 210.644974,355.704102 216.632034,348.056335 
	C220.551437,350.190399 220.864410,352.379211 217.006241,354.872375 
	C211.449158,358.463379 207.379471,364.304504 200.219025,365.504120 
	C197.384445,365.979004 195.340958,365.676849 194.091324,362.502747 
z"/>
<path fill="#DEAD6F" opacity="1.000000" stroke="none" 
	d="
M179.849350,373.524536 
	C170.894577,372.721985 162.532547,369.175385 154.249573,365.587524 
	C144.550751,361.386353 135.269806,356.308807 126.116234,350.426910 
	C126.757088,349.407562 127.741142,348.930084 128.677139,349.528687 
	C144.619385,359.724457 161.982681,366.847565 179.849350,373.524536 
z"/>
<path fill="#DEAD6F" opacity="1.000000" stroke="none" 
	d="
M122.658325,357.321228 
	C125.878441,364.280884 127.935295,371.936462 131.919449,378.843231 
	C135.092834,384.344482 138.590195,389.564789 142.809814,394.661377 
	C141.523056,394.934296 140.254028,394.959808 139.258987,393.758606 
	C130.909546,383.679443 125.390228,372.196411 122.214767,359.550232 
	C122.068764,358.968781 122.383278,358.271667 122.658325,357.321228 
z"/>
<path fill="#DEAD6F" opacity="1.000000" stroke="none" 
	d="
M267.956848,264.733704 
	C257.309479,256.236755 244.904022,250.912796 231.360748,247.010406 
	C231.310196,246.684219 231.624878,246.377151 231.900864,246.408676 
	C245.332870,247.943344 256.843811,253.894012 267.375427,262.009766 
	C267.874512,262.394379 267.776245,263.554230 267.956848,264.733704 
z"/>
<path fill="#DEAD6F" opacity="1.000000" stroke="none" 
	d="
M301.562775,345.996674 
	C304.172089,337.031433 295.875946,339.125549 292.154480,337.279510 
	C288.935852,335.682892 284.984711,335.562988 281.158142,334.453186 
	C282.474579,332.661987 284.107635,333.550598 285.663910,333.949493 
	C291.303223,335.394958 296.943207,336.844116 302.546204,338.422180 
	C304.880310,339.079590 306.124329,340.729767 305.917389,343.294373 
	C305.710266,345.861176 303.876465,345.972137 301.562775,345.996674 
z"/>
<path fill="#DEAD6F" opacity="1.000000" stroke="none" 
	d="
M262.089417,321.497894 
	C266.037079,319.648132 270.097046,320.031281 274.582336,321.094360 
	C274.825989,324.913696 273.504517,326.208893 270.283813,323.351166 
	C269.635803,322.776184 269.088440,321.377533 268.131561,322.791412 
	C265.372223,326.868713 263.810577,324.301056 262.089417,321.497894 
z"/>
<path fill="#DEAD6F" opacity="1.000000" stroke="none" 
	d="
M148.056137,401.305420 
	C150.403961,401.827820 152.152542,403.527161 153.961243,405.630066 
	C151.005508,406.061096 147.921158,406.177521 148.056137,401.305420 
z"/>
<path fill="#DEAD6F" opacity="1.000000" stroke="none" 
	d="
M143.101593,396.256348 
	C145.723969,396.186920 145.731110,399.374969 147.957932,400.626587 
	C144.794113,401.395874 143.664825,399.369476 143.101593,396.256348 
z"/>
<path fill="#DEAD6F" opacity="1.000000" stroke="none" 
	d="
M272.958618,268.753601 
	C272.032867,268.307281 271.108246,267.500122 270.070923,266.404114 
	C272.854279,264.376312 272.759247,266.579346 272.958618,268.753601 
z"/>
<path fill="#DEAD6F" opacity="1.000000" stroke="none" 
	d="
M184.879501,374.550659 
	C183.802826,375.025879 182.588684,375.300537 181.339355,373.992828 
	C182.375977,372.996033 183.679214,372.668365 184.879501,374.550659 
z"/>
<path fill="#DEAD6F" opacity="1.000000" stroke="none" 
	d="
M229.892685,246.562988 
	C229.091568,246.800674 228.182922,246.768005 227.116592,246.425659 
	C227.962189,245.195511 228.926270,244.902679 229.892685,246.562988 
z"/>
<path fill="#DEAD6F" opacity="1.000000" stroke="none" 
	d="
M223.892685,245.562988 
	C223.091568,245.800674 222.182922,245.767990 221.116592,245.425659 
	C221.962189,244.195511 222.926270,243.902679 223.892685,245.562988 
z"/>
<path fill="#DEAD6F" opacity="1.000000" stroke="none" 
	d="
M121.919952,353.174316 
	C123.296059,353.417023 122.917259,354.448364 122.905182,355.659821 
	C121.542145,355.522247 120.885963,354.774780 121.919952,353.174316 
z"/>
<path fill="#DEAD6F" opacity="1.000000" stroke="none" 
	d="
M274.892670,333.562988 
	C274.091553,333.800659 273.182922,333.767975 272.116577,333.425659 
	C272.962189,332.195618 273.926270,331.902618 274.892670,333.562988 
z"/>
<path fill="#DEAD6F" opacity="1.000000" stroke="none" 
	d="
M209.977722,416.953552 
	C205.486542,415.916626 202.640976,413.466827 203.165802,409.061859 
	C203.541718,405.906586 205.985062,404.142426 209.419678,403.967651 
	C212.939255,403.788605 215.360168,405.409943 215.867020,408.650604 
	C216.372131,411.880157 216.267731,415.457703 211.632034,416.134766 
	C211.183395,416.200317 210.791122,416.651794 209.977722,416.953552 
z"/>
<path fill="#DEAD6F" opacity="1.000000" stroke="none" 
	d="
M243.033203,404.838806 
	C240.260117,407.986633 237.183029,408.966736 233.984192,406.371887 
	C231.779892,404.583832 230.162308,402.235687 231.435532,399.047882 
	C233.044693,395.019012 236.471817,394.477783 239.989288,395.131378 
	C243.595459,395.801453 244.669189,399.540405 243.033203,404.838806 
z"/>
<path fill="#DEAD6F" opacity="1.000000" stroke="none" 
	d="
M252.810822,395.298462 
	C250.105362,392.582550 248.995346,389.848236 251.088593,386.699707 
	C252.726288,384.236389 255.370590,383.443970 258.021942,384.148590 
	C260.126831,384.707977 262.560303,385.667938 262.937775,388.380554 
	C263.309265,391.050232 263.053711,393.742615 260.769653,395.589539 
	C258.289734,397.594757 255.646286,397.344269 252.810822,395.298462 
z"/>
<path fill="#DEAD6F" opacity="1.000000" stroke="none" 
	d="
M257.697479,361.714539 
	C255.294312,365.802643 251.932755,365.935669 248.774078,364.078644 
	C245.201630,361.978363 245.018280,358.421997 247.047882,355.087189 
	C248.694855,352.381104 251.063919,351.028229 254.427200,352.822601 
	C258.079712,354.771362 259.952240,357.229401 257.697479,361.714539 
z"/>
<path fill="#DEAD6F" opacity="1.000000" stroke="none" 
	d="
M234.379883,370.261505 
	C237.901230,369.414154 241.049332,369.182312 243.056900,372.433807 
	C244.537384,374.831665 244.772095,377.339203 242.790771,379.700104 
	C240.614990,382.292786 235.895798,382.968018 233.538834,381.002808 
	C230.052383,378.095886 230.202454,375.025970 234.379883,370.261505 
z"/>
<path fill="#DEAD6F" opacity="1.000000" stroke="none" 
	d="
M205.292816,380.338745 
	C208.346924,376.907684 211.564804,377.144135 214.691650,379.268799 
	C217.571274,381.225464 217.980759,384.270874 216.291718,387.025543 
	C214.514801,389.923553 211.614914,391.274475 208.103302,389.954224 
	C204.658844,388.659180 203.451965,384.854156 205.292816,380.338745 
z"/>
<path fill="#DEAD6F" opacity="1.000000" stroke="none" 
	d="
M182.026184,399.365723 
	C184.372360,395.032410 188.176239,393.703796 191.210663,395.747498 
	C194.136551,397.718109 195.137207,402.712952 193.128326,405.319427 
	C190.708191,408.459503 186.782227,408.711029 183.621796,406.182037 
	C181.354736,404.367889 182.172409,402.003235 182.026184,399.365723 
z"/>
</svg>