<svg width="18" height="21" viewBox="0 0 18 21" fill="none" xmlns="http://www.w3.org/2000/svg">
<path d="M12.2934 2.34502C11.4572 1.44225 10.2893 0.945099 9.00025 0.945099C7.70431 0.945099 6.53255 1.43924 5.70025 2.33643C4.85892 3.2435 4.449 4.47627 4.54525 5.80744C4.73603 8.43369 6.7345 10.5701 9.00025 10.5701C11.266 10.5701 13.261 8.43412 13.4548 5.8083C13.5524 4.48916 13.1399 3.25897 12.2934 2.34502ZM16.5627 20.1951H1.43775C1.23977 20.1977 1.04372 20.1561 0.86384 20.0734C0.683963 19.9906 0.52479 19.8688 0.397902 19.7169C0.118605 19.383 0.006027 18.9271 0.0893864 18.466C0.452043 16.4542 1.58384 14.7643 3.36275 13.5779C4.94314 12.5247 6.94505 11.9451 9.00025 11.9451C11.0554 11.9451 13.0574 12.5252 14.6377 13.5779C16.4167 14.7639 17.5484 16.4538 17.9111 18.4656C17.9945 18.9267 17.8819 19.3826 17.6026 19.7164C17.4757 19.8685 17.3166 19.9904 17.1367 20.0732C16.9568 20.156 16.7608 20.1976 16.5627 20.1951Z" fill="#41403E"/>
</svg>
